<svg xmlns="http://www.w3.org/2000/svg" viewBox="0 0 753.54 182.46"><defs><style>.cls-1{fill:#1b283e;}.cls-2{fill:#2e4469;}.cls-3{fill:#4285f4;}</style></defs><title>Brand</title><g id="Layer_2" data-name="Layer 2"><g id="Layer_1-2" data-name="Layer 1"><g id="Brand"><path class="cls-1" d="M133.6,140A44.71,44.71,0,0,1,117,122.45a52,52,0,0,1-5.95-25A52.55,52.55,0,0,1,117,72.37,44,44,0,0,1,133.6,54.86a46.15,46.15,0,0,1,24-6.31q15,0,25.18,7A38.07,38.07,0,0,1,197.31,74l-13.9,5.78a26.9,26.9,0,0,0-10.2-12.9,29.17,29.17,0,0,0-16.33-4.43,28,28,0,0,0-15.16,4.43,32,32,0,0,0-11.28,12.36,38.06,38.06,0,0,0-4.24,18.23,38,38,0,0,0,4.24,18.22,32.12,32.12,0,0,0,11.28,12.37,28,28,0,0,0,15.16,4.42A30.39,30.39,0,0,0,173.66,128a27,27,0,0,0,10.47-12.82l13.72,5.78a40.55,40.55,0,0,1-15.07,18.41q-10.38,7-25.18,7A45.66,45.66,0,0,1,133.6,140Z"/><path class="cls-1" d="M224.92,142.4a29.75,29.75,0,0,1-12.27-10.92,29.22,29.22,0,0,1-4.33-15.8q0-14.61,11-22.83t27.79-8.21a62.9,62.9,0,0,1,15.43,1.81,40,40,0,0,1,10.92,4.15V85q0-10.29-7.22-16.51T248,62.26a30.85,30.85,0,0,0-14.26,3.34,26,26,0,0,0-10.28,9.3l-11.55-8.67a36.92,36.92,0,0,1,14.89-13,46.65,46.65,0,0,1,21-4.69q18.77,0,29.51,9.83t10.74,26.8v58.3H273.47V130.3h-.72a32.83,32.83,0,0,1-11.91,11.37,34.49,34.49,0,0,1-17.87,4.7A39.89,39.89,0,0,1,224.92,142.4Zm33.93-13.54a30.18,30.18,0,0,0,10.65-10.65,28.13,28.13,0,0,0,4-14.62,38,38,0,0,0-10.65-4.69,48.48,48.48,0,0,0-13.35-1.8q-12.65,0-19,5.23A16.65,16.65,0,0,0,224,115.87a15.05,15.05,0,0,0,5.77,12.27q5.78,4.7,14.62,4.69A27.74,27.74,0,0,0,258.85,128.86Z"/><path class="cls-1" d="M325.18,140.05a44.28,44.28,0,0,1-15.8-17.42,53.72,53.72,0,0,1-5.77-25.17,53.88,53.88,0,0,1,5.77-25.09,44.2,44.2,0,0,1,15.8-17.51,40.9,40.9,0,0,1,22.29-6.31,37.29,37.29,0,0,1,18.95,4.78,34.9,34.9,0,0,1,12.63,11.82h.72l-.72-12.81V14.25L394.39,0V143.48H379.77V129.94h-.72a35.35,35.35,0,0,1-12.63,11.64,37.3,37.3,0,0,1-18.95,4.79A40.91,40.91,0,0,1,325.18,140.05Zm39.16-11.91a31.72,31.72,0,0,0,11.19-12.27,38.48,38.48,0,0,0,4.24-18.41,38.45,38.45,0,0,0-4.24-18.41,31.68,31.68,0,0,0-11.19-12.28,28.23,28.23,0,0,0-30,0A31.36,31.36,0,0,0,323,79.14a38.59,38.59,0,0,0-4.24,18.32A38.65,38.65,0,0,0,323,115.78a31.33,31.33,0,0,0,11.28,12.36,28.23,28.23,0,0,0,30,0Z"/><path class="cls-1" d="M433.56,140.05a43.83,43.83,0,0,1-16.34-17.42,52.66,52.66,0,0,1-5.86-25,54.84,54.84,0,0,1,5.5-24.55,44.59,44.59,0,0,1,15.61-17.87,41.59,41.59,0,0,1,23.46-6.67q13.54,0,23.47,6a40.18,40.18,0,0,1,15.25,16.7A53.88,53.88,0,0,1,500,95.65a18,18,0,0,1-.54,4.69H426.7q.54,10.47,5.05,17.69a29.53,29.53,0,0,0,11.46,10.83,31.08,31.08,0,0,0,14.53,3.61q17.68,0,27.25-16.6l13,6.31a46.34,46.34,0,0,1-16.16,17.69q-10.2,6.49-24.63,6.5A44.82,44.82,0,0,1,433.56,140.05Zm50.17-52.34a30,30,0,0,0-3.25-11.55,24.74,24.74,0,0,0-9.11-9.75q-6.24-4-15.62-4a25.94,25.94,0,0,0-18.31,7q-7.5,7-9.84,18.32Z"/><path class="cls-1" d="M517.84,51.43h14.62V65h.72a31.8,31.8,0,0,1,11.91-11.73,32.45,32.45,0,0,1,16.78-4.69,31.53,31.53,0,0,1,17.6,4.87,27.34,27.34,0,0,1,10.74,13,37.65,37.65,0,0,1,12.9-13,35.3,35.3,0,0,1,18.68-4.87q15.88,0,23.92,9.65t8,26.26v59H638.58V86.81q0-12.81-5.24-18.59t-15.52-5.78a21.07,21.07,0,0,0-12.45,4,26.8,26.8,0,0,0-8.75,10.65,33.29,33.29,0,0,0-3.16,14.44v52H578.12V87q0-13-5.24-18.77t-15.34-5.78a20.75,20.75,0,0,0-12.45,4.06,27.37,27.37,0,0,0-8.75,10.83,33.88,33.88,0,0,0-3.16,14.53v51.62H517.84Z"/><path class="cls-1" d="M701.39,137.7,663.3,51.43h16.61l28.88,68.41h.36l27.79-68.41h16.6l-56.85,131H680.81Z"/><g id="Final_Brand" data-name="Final Brand"><path id="Combined-Shape" class="cls-1" d="M29.3,13.59l-1.66-.83-1.11-.55L26,12a1.09,1.09,0,0,1-.61-1A1.1,1.1,0,0,1,26,10l8.31-4.13-.76,2.23L27.77,11l5.82,2.9.76,2.22L31,14.42Z"/><path class="cls-2" d="M61.24,9.15a9.1,9.1,0,0,1-.49,2.93L27,110.8l-.24.71-9.22,27a8.89,8.89,0,0,1-.95,2l-.76.55h0l-1.72,1.26A8.8,8.8,0,0,1,9.71,144h0a8.88,8.88,0,0,1-9.44-11c0-.11.07-.21.1-.32l.34-1L43.55,6.21A9.09,9.09,0,0,1,61.24,9.15Z"/><path class="cls-3" d="M98.09,143.48a9.08,9.08,0,0,1-11.53-5.66L73.42,99.36l-.14-.42L67.4,81.74l-.14-.42L52.18,37.18l-8.57-25.1a8.83,8.83,0,0,1-.49-2.93A9.08,9.08,0,0,1,51.66.08h.18c.23,0,.45,0,.68,0h.18a9.06,9.06,0,0,1,8.1,6.13L82.61,70.06l.15.43,5.87,17.19.15.43,15,43.84A9.08,9.08,0,0,1,98.09,143.48Z"/><path id="Combined-Shape-2" data-name="Combined-Shape" class="cls-1" d="M74.86,13.59l1.66-.83,1.11-.55.49-.24a1.1,1.1,0,0,0,.62-1,1.11,1.11,0,0,0-.62-1L69.81,5.86l.76,2.23L76.39,11l-5.82,2.9-.76,2.22,3.39-1.68Z"/><path class="cls-1" d="M96.37,71a8.85,8.85,0,0,0-8-3.6h0A8.9,8.9,0,0,0,84,69.06l-1.72,1.27h0l-.77.56L24.81,112.41l-.32.24-15,11v0L3.63,128a8.94,8.94,0,0,0-2.92,3.68,9.49,9.49,0,0,0-.4,1.17l0,.08,0,.06a8.88,8.88,0,0,0,9.44,11h0a8.8,8.8,0,0,0,4.43-1.68L15.86,141h0l.76-.55L73.28,98.94l.32-.24,15-11h0l5.83-4.28a9,9,0,0,0,2.92-3.67,10.78,10.78,0,0,0,.4-1.17l0-.09s0,0,0-.06A8.82,8.82,0,0,0,96.37,71Z"/></g></g></g></g></svg>