<svg id="Layer_35" enable-background="new 0 0 64 64" height="512" viewBox="0 0 64 64" width="512"
     xmlns="http://www.w3.org/2000/svg" xmlns:xlink="http://www.w3.org/1999/xlink">
    <linearGradient id="SVGID_1_" gradientUnits="userSpaceOnUse" x1="32" x2="32" y1="63" y2="1">
        <stop offset="0" stop-color="#9f2fff"/>
        <stop offset="1" stop-color="#0bb1d3"/>
    </linearGradient>
    <path d="m58 7h-7v-2h-6.101c-.464-2.279-2.484-4-4.899-4s-4.435 1.721-4.899 4h-6.101v2h-7c-2.757 0-5 2.243-5 5v18.263c-.641-.166-1.308-.263-2-.263-4.411 0-8 3.589-8 8 0 2.805 1.455 5.274 3.646 6.702-5.593 1.836-9.646 7.099-9.646 13.298v5h28v-4h10.685c1.126 2.361 3.53 4 6.315 4s5.188-1.639 6.315-4h5.685c2.757 0 5-2.243 5-5v-42c0-2.757-2.243-5-5-5zm-16 28 4-5.333 4 5.333zm-1 2h4v14h-4zm6 0h4v14h-4zm-1-10.667-7 9.334v17.333h-10.939c-1.503-3.913-4.705-6.984-8.707-8.298 2.191-1.428 3.646-3.897 3.646-6.702v-25h8.111c1.263 1.235 2.988 2 4.889 2h8c1.902 0 3.626-.765 4.889-2h8.111v40h-4v-17.333zm-26 34.667h-10v-8c0-1.803-.552-3.553-1.559-5.037 1.266-.83 2.695-1.429 4.231-1.732l-.714 7.141 3.042 3.042 3.042-3.042-.714-7.141c1.536.303 2.965.902 4.231 1.732-1.007 1.484-1.559 3.234-1.559 5.037zm-5-15c.1 0 .197.013.296.015l.662 6.613-.958.958-.958-.958.662-6.613c.099-.002.196-.015.296-.015zm16-39h6v-1c0-1.654 1.346-3 3-3s3 1.346 3 3v1h6v1c0 2.757-2.243 5-5 5h-8c-2.757 0-5-2.243-5-5zm-12 5c0-1.654 1.346-3 3-3h7.08c.102.706.308 1.378.605 2h-8.685v21.726c-.572-.65-1.247-1.206-2-1.644zm-10 26c0-3.309 2.691-6 6-6s6 2.691 6 6-2.691 6-6 6-6-2.691-6-6zm-6 20c0-3.477 1.495-6.603 3.866-8.797.733 1.128 1.134 2.444 1.134 3.797v8h-5zm24 3h-5v-8c0-1.353.401-2.669 1.134-3.797 2.371 2.194 3.866 5.32 3.866 8.797zm1.949-4c-.048-.681-.138-1.349-.281-2h10.332v1c0 .34.033.672.08 1zm17.051 4c-2.757 0-5-2.243-5-5v-3h10v3c0 2.757-2.243 5-5 5zm15-7c0 1.654-1.346 3-3 3h-5.08c.047-.328.08-.66.08-1v-1h4c1.103 0 2-.897 2-2v-40c0-1.103-.897-2-2-2h-6.685c.297-.622.503-1.294.605-2h7.08c1.654 0 3 1.346 3 3zm-20-43h-2v-2h2zm-4 0h-2v-2h2zm8 0h-2v-2h2zm-.707 5.293-5.293 5.293v-2.586h-14v14h14v-8.586l6.707-6.707zm-7.293 14.707h-10v-10h10v2.586l-4 4-3.293-3.293-1.414 1.414 4.707 4.707 4-4zm-12 4h12v2h-12zm0 4h12v2h-12zm0 4h2v2h-2zm4 0h2v2h-2zm4 0h2v2h-2zm22-26h-2v-2h2zm-4 0h-2v-2h2zm4 4h-8v-2h8zm0 4h-8v-2h8z"
          fill="url(#SVGID_1_)"/>
</svg>